<svg width="46" height="28" viewBox="0 0 46 28" fill="none" xmlns="http://www.w3.org/2000/svg">
<path d="M16.1818 0.818181H23.2898V17.5909C23.2898 19.5852 22.8125 21.3111 21.858 22.7685C20.9119 24.2173 19.5909 25.3381 17.8949 26.1307C16.1989 26.9148 14.2301 27.3068 11.9886 27.3068C9.73011 27.3068 7.75284 26.9148 6.05682 26.1307C4.3608 25.3381 3.03977 24.2173 2.09375 22.7685C1.15625 21.3111 0.6875 19.5852 0.6875 17.5909V0.818181H7.79545V16.9773C7.79545 17.7869 7.97443 18.5114 8.33239 19.1506C8.69034 19.7812 9.18466 20.2756 9.81534 20.6335C10.4545 20.9915 11.179 21.1705 11.9886 21.1705C12.8068 21.1705 13.5313 20.9915 14.1619 20.6335C14.7926 20.2756 15.2869 19.7812 15.6449 19.1506C16.0028 18.5114 16.1818 17.7869 16.1818 16.9773V0.818181Z" fill="white"/>
<path d="M26.668 27V0.818181H45.0771V6.54545H33.7759V11.0455H43.9521V16.7727H33.7759V27H26.668Z" fill="#885FFF"/>
</svg>
