<svg width="84" height="17" viewBox="0 0 84 17" fill="none" xmlns="http://www.w3.org/2000/svg">
<path d="M9.54545 1.45455H13.4943V10.7727C13.4943 11.8807 13.2292 12.8395 12.6989 13.6491C12.1733 14.4541 11.4394 15.0767 10.4972 15.517C9.55492 15.9527 8.46117 16.1705 7.21591 16.1705C5.96117 16.1705 4.86269 15.9527 3.92045 15.517C2.97822 15.0767 2.24432 14.4541 1.71875 13.6491C1.19792 12.8395 0.9375 11.8807 0.9375 10.7727V1.45455H4.88636V10.4318C4.88636 10.8816 4.9858 11.2841 5.18466 11.6392C5.38352 11.9896 5.65814 12.2642 6.00852 12.4631C6.36364 12.6619 6.7661 12.7614 7.21591 12.7614C7.67045 12.7614 8.07292 12.6619 8.4233 12.4631C8.77367 12.2642 9.0483 11.9896 9.24716 11.6392C9.44602 11.2841 9.54545 10.8816 9.54545 10.4318V1.45455ZM19.3484 9.86364V16H15.4279V5.09091H19.1495V7.16477H19.2631C19.4999 6.47348 19.9165 5.93134 20.5131 5.53835C21.1145 5.14536 21.8152 4.94886 22.6154 4.94886C23.3872 4.94886 24.0572 5.12642 24.6254 5.48153C25.1983 5.83191 25.641 6.31487 25.9535 6.9304C26.2707 7.54593 26.427 8.24905 26.4222 9.03977V16H22.5018V9.86364C22.5065 9.32386 22.3692 8.90009 22.0898 8.59233C21.8152 8.28456 21.4317 8.13068 20.9393 8.13068C20.6173 8.13068 20.3356 8.2017 20.0941 8.34375C19.8574 8.48106 19.6751 8.67992 19.5472 8.94034C19.4194 9.19602 19.3531 9.50379 19.3484 9.86364ZM28.3576 16V5.09091H32.2781V16H28.3576ZM30.3178 3.95455C29.7875 3.95455 29.333 3.77936 28.9542 3.42898C28.5754 3.0786 28.386 2.6572 28.386 2.16477C28.386 1.67235 28.5754 1.25095 28.9542 0.900568C29.333 0.550189 29.7875 0.375 30.3178 0.375C30.8529 0.375 31.3074 0.550189 31.6815 0.900568C32.0603 1.25095 32.2496 1.67235 32.2496 2.16477C32.2496 2.6572 32.0603 3.0786 31.6815 3.42898C31.3074 3.77936 30.8529 3.95455 30.3178 3.95455Z" fill="white"/>
<path d="M34.2188 16V1.45455H44.446V4.63636H38.1676V7.13636H43.821V10.3182H38.1676V16H34.2188ZM50.4102 16.1989C49.2264 16.1989 48.2132 15.9645 47.3704 15.4957C46.5276 15.0223 45.8813 14.3641 45.4315 13.5213C44.9817 12.6738 44.7567 11.6913 44.7567 10.5739C44.7567 9.45644 44.9817 8.47633 45.4315 7.63352C45.8813 6.78598 46.5276 6.12784 47.3704 5.65909C48.2132 5.18561 49.2264 4.94886 50.4102 4.94886C51.5939 4.94886 52.6071 5.18561 53.4499 5.65909C54.2927 6.12784 54.939 6.78598 55.3888 7.63352C55.8387 8.47633 56.0636 9.45644 56.0636 10.5739C56.0636 11.6913 55.8387 12.6738 55.3888 13.5213C54.939 14.3641 54.2927 15.0223 53.4499 15.4957C52.6071 15.9645 51.5939 16.1989 50.4102 16.1989ZM50.4386 13.3011C50.77 13.3011 51.0565 13.1899 51.2979 12.9673C51.5394 12.7448 51.7264 12.4276 51.859 12.0156C51.9916 11.6037 52.0579 11.1136 52.0579 10.5455C52.0579 9.97254 51.9916 9.48248 51.859 9.07528C51.7264 8.66335 51.5394 8.34612 51.2979 8.12358C51.0565 7.90104 50.77 7.78977 50.4386 7.78977C50.0882 7.78977 49.7875 7.90104 49.5366 8.12358C49.2856 8.34612 49.0939 8.66335 48.9613 9.07528C48.8287 9.48248 48.7624 9.97254 48.7624 10.5455C48.7624 11.1136 48.8287 11.6037 48.9613 12.0156C49.0939 12.4276 49.2856 12.7448 49.5366 12.9673C49.7875 13.1899 50.0882 13.3011 50.4386 13.3011ZM57.6545 16V5.09091H61.4613V7.16477H61.5749C61.7738 6.39773 62.0887 5.83665 62.5195 5.48153C62.9551 5.12642 63.4641 4.94886 64.0465 4.94886C64.217 4.94886 64.3851 4.96307 64.5508 4.99148C64.7212 5.01515 64.8846 5.05066 65.0408 5.09801V8.44318C64.8467 8.37689 64.6076 8.32718 64.3235 8.29403C64.0394 8.26089 63.7956 8.24432 63.592 8.24432C63.2085 8.24432 62.8628 8.33191 62.555 8.5071C62.252 8.67756 62.0129 8.91903 61.8377 9.23153C61.6625 9.5393 61.5749 9.90152 61.5749 10.3182V16H57.6545ZM66.3263 16V5.09091H70.0479V7.16477H70.1616C70.3888 6.48295 70.7771 5.94318 71.3263 5.54545C71.8756 5.14773 72.529 4.94886 73.2866 4.94886C74.0536 4.94886 74.7141 5.15246 75.2681 5.55966C75.8221 5.96212 76.1559 6.49716 76.2695 7.16477H76.3832C76.5678 6.49716 76.9608 5.96212 77.5621 5.55966C78.1635 5.15246 78.869 4.94886 79.6786 4.94886C80.725 4.94886 81.5726 5.28504 82.2212 5.95739C82.8746 6.62973 83.2013 7.52462 83.2013 8.64205V16H79.2809V9.63636C79.2809 9.15814 79.1602 8.78409 78.9187 8.5142C78.6772 8.23958 78.3529 8.10227 77.9457 8.10227C77.5432 8.10227 77.2236 8.23958 76.9869 8.5142C76.7549 8.78409 76.6388 9.15814 76.6388 9.63636V16H72.8888V9.63636C72.8888 9.15814 72.7681 8.78409 72.5266 8.5142C72.2852 8.23958 71.9608 8.10227 71.5536 8.10227C71.2837 8.10227 71.0517 8.16383 70.8576 8.28693C70.6635 8.41004 70.512 8.58759 70.4031 8.8196C70.2989 9.04687 70.2468 9.31913 70.2468 9.63636V16H66.3263Z" fill="#885FFF"/>
</svg>
